# xmcd CD database file
#
# Track frame offsets:
#	187
#	21232
#	42505
#	59472
#	78390
#	101712
#	123455
#	145605
#	165320
#	186152
#	212917
#	244807
#	266072
#	286577
#
# Disc length: 4108 seconds
#
# Revision: 3
# Processed by: cddbd v1.5.1PL0 Copyright (c) Steve Scherf et al.
# Submitted via: CDex 1.51
#
DISCID=c8100a0e
DTITLE=阿川泰子 - ベスト・セレクション DISC 1
DYEAR=1992
DGENRE=Jazz
TTITLE0=What a Woman Feels Inside
TTITLE1=Try Again
TTITLE2=Never Wanna Say Goodnight
TTITLE3=Night Line
TTITLE4=When the World Turns Bule (Melodies of Love)
TTITLE5=Summertime
TTITLE6=Just the Way Your Are
TTITLE7=The Look of Love
TTITLE8=Your Song
TTITLE9=Feel Like Makin' Love
TTITLE10=You Bring the Sun Out
TTITLE11=Stop! In the Name of Love
TTITLE12=Coo Baby Baby
TTITLE13=L.A. Night
EXTD=YEAR: 1992
EXTT0=
EXTT1=
EXTT2=
EXTT3=
EXTT4=
EXTT5=
EXTT6=
EXTT7=
EXTT8=
EXTT9=
EXTT10=
EXTT11=
EXTT12=
EXTT13=
PLAYORDER=
